<?xml version="1.0" standalone="no"?>
<!DOCTYPE svg PUBLIC "-//W3C//DTD SVG 20010904//EN"
 "http://www.w3.org/TR/2001/REC-SVG-20010904/DTD/svg10.dtd">
<svg version="1.0" xmlns="http://www.w3.org/2000/svg"
 width="1256.000000pt" height="1208.000000pt" viewBox="0 0 1256.000000 1208.000000"
 preserveAspectRatio="xMidYMid meet">

<g transform="translate(0.000000,1208.000000) scale(0.100000,-0.100000)"
fill="#000000" stroke="none">
<path d="M5660 12043 c-62 -7 -222 -54 -325 -95 -55 -22 -129 -49 -165 -59
-36 -10 -83 -27 -105 -38 -22 -10 -60 -27 -85 -36 -60 -22 -84 -44 -69 -62 7
-7 8 -17 4 -21 -4 -4 -10 -1 -12 6 -3 6 -9 12 -14 12 -6 0 -6 -7 1 -19 8 -16
5 -21 -18 -29 -15 -5 -44 -24 -66 -41 -43 -35 -40 -42 5 -10 16 11 29 15 29 9
0 -6 5 -8 10 -5 6 3 10 3 9 -2 0 -4 -34 -37 -75 -72 -43 -37 -73 -70 -70 -77
3 -8 0 -11 -9 -8 -9 4 -17 -6 -24 -31 -5 -20 -22 -53 -38 -73 -16 -21 -28 -50
-28 -67 0 -34 -91 -185 -111 -185 -9 0 -7 11 6 39 11 21 21 50 24 65 3 15 9
33 15 40 17 21 51 106 41 106 -5 0 -19 -18 -31 -40 -12 -22 -24 -38 -26 -36
-5 5 47 117 70 149 10 16 17 31 14 34 -10 10 -61 -82 -93 -167 -45 -120 -49
-134 -34 -125 10 6 11 1 5 -21 -11 -45 -12 -68 0 -76 6 -5 6 -8 -2 -8 -7 0
-13 -9 -13 -19 0 -32 -20 -35 -22 -4 -1 15 -5 -3 -9 -42 -4 -38 -11 -104 -16
-145 -4 -41 -8 -183 -8 -315 0 -234 1 -242 27 -315 34 -98 112 -262 120 -254
4 3 11 -4 18 -15 6 -12 15 -19 20 -16 5 3 16 -5 24 -17 14 -21 23 -44 71 -181
26 -72 30 -49 5 30 -105 337 -114 374 -134 553 -25 228 -25 238 -10 363 10 91
20 130 40 167 15 28 23 54 19 61 -5 7 -4 10 2 6 5 -3 25 24 44 61 32 62 80
123 139 175 13 12 54 51 90 85 36 35 77 68 92 74 15 5 25 15 22 22 -2 6 8 16
23 22 l28 10 -30 17 -30 17 41 -6 c30 -5 45 -2 57 11 9 9 17 14 17 10 0 -3 10
0 22 6 13 7 33 13 46 15 19 2 21 0 11 -12 -7 -8 -18 -13 -25 -10 -6 2 -14 -4
-17 -15 -7 -25 11 -24 34 2 16 18 23 20 48 11 17 -6 55 -9 85 -6 31 2 57 0 61
-6 3 -5 18 -10 32 -10 27 0 133 -31 190 -56 17 -8 42 -14 56 -14 14 0 38 -5
54 -11 15 -6 59 -20 98 -31 38 -11 72 -22 75 -26 3 -4 30 -16 60 -26 62 -21
180 -79 225 -110 17 -12 41 -27 55 -34 14 -7 54 -40 90 -72 37 -34 74 -60 87
-60 13 0 39 -20 68 -52 52 -58 120 -185 102 -191 -7 -2 0 -22 17 -51 15 -26
25 -50 22 -53 -3 -4 0 -13 6 -21 35 -41 70 -121 73 -163 3 -46 24 -109 36
-109 5 0 9 -9 9 -19 0 -11 5 -23 11 -26 5 -4 15 -19 21 -33 16 -39 20 -10 10
79 -6 62 -5 78 6 86 8 4 16 20 17 35 2 15 17 39 35 55 29 26 32 34 33 90 1 52
3 59 14 45 11 -15 12 -14 13 11 0 27 42 105 64 119 38 25 -29 240 -125 405
-34 60 -85 149 -114 200 -249 441 -662 692 -1065 646z m-470 -287 c0 -3 -4 -8
-10 -11 -5 -3 -10 -1 -10 4 0 6 5 11 10 11 6 0 10 -2 10 -4z m23 -33 c-7 -2
-21 -2 -30 0 -10 3 -4 5 12 5 17 0 24 -2 18 -5z m53 -21 c-10 -9 -106 -19
-106 -11 0 4 6 9 13 12 18 7 100 6 93 -1z m-45 -46 c-9 -11 -9 -15 1 -19 20
-7 6 -16 -35 -20 -43 -5 -50 7 -9 18 15 4 21 10 14 12 -18 7 -4 23 20 23 16 0
18 -3 9 -14z m-18 -62 c-7 -3 -9 -12 -6 -21 4 -11 2 -14 -5 -9 -18 11 -14 36
6 35 9 0 12 -3 5 -5z m-13 -84 c0 -5 -4 -10 -10 -10 -5 0 -10 5 -10 10 0 6 5
10 10 10 6 0 10 -4 10 -10z m-617 -355 c-3 -9 -8 -14 -10 -11 -3 3 -2 9 2 15
9 16 15 13 8 -4z"/>
<path d="M4719 11633 c-62 -65 -101 -121 -94 -133 3 -5 -3 -30 -14 -55 -11
-25 -16 -43 -10 -40 13 9 131 166 127 171 -2 2 -17 -4 -33 -12 l-30 -15 26 28
c29 32 82 103 77 103 -2 0 -24 -21 -49 -47z"/>
<path d="M5940 10864 c-39 -8 -80 -26 -80 -35 0 -5 -8 -9 -17 -9 -10 0 -29 -7
-43 -15 -14 -8 -37 -20 -51 -27 -44 -22 -199 -175 -214 -213 -8 -19 -15 -46
-15 -61 0 -24 3 -25 28 -19 33 8 63 31 164 122 117 106 250 163 383 163 89 0
165 10 165 21 0 5 -30 23 -67 39 -53 25 -85 32 -148 35 -44 2 -91 1 -105 -1z"/>
<path d="M6980 10699 c-10 -18 -6 -27 32 -68 24 -26 56 -62 72 -81 18 -20 31
-29 34 -22 4 14 -13 44 -69 118 -22 28 -39 56 -39 62 0 19 -18 14 -30 -9z"/>
<path d="M6927 10589 c-4 -13 -7 -37 -7 -53 0 -27 1 -28 23 -14 29 20 32 40 9
68 l-19 23 -6 -24z"/>
<path d="M5965 10544 c-64 -11 -145 -38 -145 -48 0 -5 37 0 68 9 14 5 22 3 22
-4 0 -6 -7 -11 -16 -11 -16 0 -32 -13 -96 -73 -16 -15 -34 -25 -39 -21 -10 6
-60 -48 -71 -77 -4 -10 -2 -21 4 -25 7 -4 8 -3 4 4 -4 7 -2 12 5 12 7 0 9 -11
5 -35 -4 -20 -5 -39 -2 -44 5 -8 108 28 123 43 3 3 -8 6 -25 6 -22 0 -32 5
-32 16 0 18 17 52 37 76 14 15 18 14 52 -23 29 -29 46 -39 70 -39 43 0 79 37
87 89 5 29 11 41 23 41 20 0 41 -19 41 -37 0 -21 -58 -70 -106 -90 -24 -10
-44 -24 -44 -31 0 -7 -4 -11 -9 -7 -6 3 -8 -3 -6 -13 2 -13 -4 -18 -20 -20
-12 -1 -36 -7 -51 -14 -28 -12 -26 -13 33 -16 69 -3 103 9 103 37 0 13 15 23
51 34 28 10 59 17 68 17 31 1 135 84 154 124 22 46 13 61 -46 74 -23 5 -71 21
-107 34 -61 23 -69 23 -135 12z m-214 -177 c-10 -9 -11 -8 -5 6 3 10 9 15 12
12 3 -3 0 -11 -7 -18z"/>
<path d="M6905 10421 c-8 -69 12 -130 52 -156 l22 -15 -24 -24 c-25 -25 -50
-99 -40 -116 9 -15 22 -12 63 14 20 14 49 28 64 31 50 13 63 39 62 129 0 44
-4 94 -8 109 -6 24 -11 28 -31 23 -18 -5 -32 1 -55 24 -17 16 -36 30 -43 30
-7 0 -22 3 -33 6 -20 5 -22 1 -29 -55z"/>
<path d="M4935 10410 c-48 -8 -135 -51 -135 -66 0 -8 5 -14 11 -14 5 0 7 -5 4
-11 -8 -11 93 -4 153 11 20 5 44 5 59 -1 28 -10 57 1 67 28 4 10 4 14 0 11 -3
-4 -23 3 -43 16 -42 26 -74 34 -116 26z"/>
<path d="M5013 10214 c15 -8 27 -19 27 -25 0 -10 -48 -34 -62 -31 -5 1 -8 -2
-8 -8 0 -5 -7 -7 -15 -4 -8 4 -15 1 -15 -4 0 -6 -10 -14 -22 -18 -13 -4 -34
-15 -47 -25 -13 -10 -27 -16 -32 -13 -5 3 -8 2 -7 -3 2 -4 -7 -18 -19 -30 -27
-27 -40 -70 -25 -85 15 -15 72 12 72 34 0 21 74 92 78 75 10 -35 30 -61 63
-78 31 -15 43 -17 69 -8 54 19 42 4 -20 -26 -63 -30 -77 -46 -35 -37 14 2 32
-1 39 -7 21 -18 88 28 117 78 12 23 31 43 41 47 31 9 20 32 -42 91 -58 55
-123 92 -165 92 -17 0 -15 -2 8 -15z"/>
<path d="M7160 10212 c0 -7 -16 -29 -35 -51 -38 -42 -44 -61 -19 -61 15 0 70
107 59 118 -3 3 -5 0 -5 -6z"/>
<path d="M6980 9846 c-109 -73 -104 -59 -97 -259 4 -94 9 -183 12 -197 3 -14
8 -61 11 -105 8 -107 10 -113 33 -84 49 63 111 222 111 286 0 18 8 45 17 59
31 48 18 344 -15 344 -4 0 -36 -20 -72 -44z"/>
<path d="M5867 9715 c-7 -15 -31 -36 -53 -49 -42 -23 -58 -61 -30 -72 34 -13
116 63 116 108 0 37 -16 44 -33 13z"/>
<path d="M5638 9700 c-16 -17 -28 -35 -26 -42 4 -12 133 -17 144 -5 13 13 -7
54 -31 65 -39 18 -54 15 -87 -18z"/>
<path d="M5420 9612 c0 -20 39 -62 57 -62 7 0 15 10 18 22 6 16 1 26 -16 39
-31 24 -59 24 -59 1z"/>
<path d="M5770 9410 c-44 -8 -89 -32 -114 -59 -10 -11 -22 -18 -26 -16 -4 2
-15 -4 -25 -15 -10 -11 -24 -16 -33 -13 -9 4 -13 2 -9 -4 4 -6 -9 -21 -28 -34
-20 -14 -37 -36 -41 -52 -3 -15 -14 -32 -25 -37 -10 -6 -19 -17 -19 -26 0 -11
-4 -12 -19 -4 -25 13 -51 3 -51 -21 0 -35 32 -40 76 -9 57 39 143 69 217 75
161 15 159 15 164 -5 3 -11 10 -17 17 -13 6 3 3 -3 -6 -14 -20 -21 -24 -53 -8
-53 6 0 10 5 10 10 0 6 7 10 17 10 27 0 124 51 189 100 33 25 68 50 78 55 18
11 28 46 18 62 -4 5 -41 13 -82 16 -41 3 -102 14 -135 26 -73 24 -119 30 -165
21z"/>
<path d="M5567 7872 c-9 -53 1 -116 24 -164 20 -39 67 -78 94 -78 14 0 12 6
-10 32 -38 45 -75 124 -89 193 l-13 60 -6 -43z"/>
<path d="M5359 7873 c-13 -15 -12 -15 9 -4 23 12 28 21 13 21 -5 0 -15 -7 -22
-17z"/>
<path d="M5090 7786 c0 -10 28 -13 41 -5 10 6 7 9 -13 9 -16 0 -28 -2 -28 -4z"/>
<path d="M5008 7762 c-10 -2 -18 -8 -18 -13 0 -6 -4 -7 -10 -4 -5 3 -10 1 -10
-5 0 -6 -21 -20 -47 -32 -50 -23 -57 -25 -86 -27 -9 0 -27 -12 -39 -26 -12
-14 -26 -25 -30 -25 -14 0 -78 -51 -78 -62 0 -12 43 11 53 28 4 8 15 14 22 14
8 0 15 4 15 8 0 10 17 18 110 56 36 15 73 31 82 37 10 5 30 10 45 10 20 1 22
3 9 6 -14 4 -15 7 -6 13 17 11 9 26 -12 22z"/>
<path d="M5045 7759 c-11 -17 1 -21 15 -4 8 9 8 15 2 15 -6 0 -14 -5 -17 -11z"/>
<path d="M5100 7693 c-203 -160 -292 -244 -276 -260 4 -5 238 195 356 304 62
58 17 33 -80 -44z"/>
<path d="M5470 7629 c-7 -19 -29 -67 -47 -107 -32 -66 -35 -84 -40 -187 -5
-102 -4 -115 11 -115 13 0 16 12 16 70 0 67 13 142 31 185 8 17 16 53 18 78 1
5 5 6 10 2 10 -6 26 75 19 96 -2 7 -10 -3 -18 -22z"/>
<path d="M6995 7601 c-16 -10 -44 -22 -62 -29 -81 -27 -303 -213 -303 -252 0
-9 -5 -21 -12 -28 -7 -7 -8 -12 -2 -12 11 0 54 46 54 58 0 10 96 83 155 117
61 34 183 114 208 135 38 32 11 40 -38 11z"/>
<path d="M6105 7503 c-11 -3 -26 -10 -33 -16 -9 -7 -16 -7 -24 1 -16 16 -24
15 -42 -4 -9 -9 -16 -32 -16 -55 0 -56 -28 -225 -47 -284 -24 -78 -177 -454
-212 -523 -17 -35 -64 -115 -103 -180 -195 -320 -352 -634 -422 -842 -27 -80
-59 -174 -72 -209 -30 -80 -31 -97 -1 -40 12 24 28 53 34 64 6 11 25 49 41 85
16 36 64 110 107 165 94 122 101 135 160 310 26 77 56 156 66 176 17 33 76 99
89 99 4 0 13 12 20 28 8 15 22 36 32 47 9 11 27 50 39 85 36 111 57 143 140
219 89 82 119 122 119 162 0 15 6 32 13 38 17 13 36 119 41 227 4 71 9 90 46
158 22 43 50 88 62 99 37 39 46 61 41 100 -6 42 -23 51 -23 11 0 -34 -38 -121
-56 -128 -18 -7 -18 12 0 87 9 37 21 64 35 73 17 12 19 19 11 35 -6 10 -14 18
-18 18 -4 -1 -16 -4 -27 -6z"/>
<path d="M6580 7249 c0 -5 5 -7 10 -4 6 3 10 8 10 11 0 2 -4 4 -10 4 -5 0 -10
-5 -10 -11z"/>
<path d="M8589 7022 c-17 -3 -20 -50 -6 -82 4 -8 29 -82 56 -163 74 -219 113
-320 129 -337 13 -13 14 -13 8 5 -4 11 -10 63 -13 115 -8 155 -27 227 -99 373
-38 77 -52 94 -75 89z"/>
<path d="M7312 6723 c-5 -10 -12 -40 -15 -68 -3 -27 -13 -63 -21 -80 -9 -16
-16 -42 -16 -57 0 -16 -4 -28 -10 -28 -5 0 -10 -7 -10 -16 0 -8 -9 -35 -20
-60 -16 -34 -18 -49 -10 -64 7 -13 7 -26 1 -39 -14 -26 -16 -81 -3 -112 6 -14
10 -55 11 -92 0 -36 5 -75 11 -87 5 -11 15 -29 21 -41 24 -49 48 -141 43 -169
-6 -26 -9 -28 -31 -19 -14 5 -34 20 -44 34 -11 13 -28 27 -39 30 -11 4 -17 12
-13 21 3 8 -1 14 -11 14 -9 0 -21 9 -28 20 -7 11 -18 20 -25 20 -7 0 -17 9
-23 20 -15 28 -44 25 -60 -5 -7 -14 -22 -25 -32 -25 -29 0 -13 -16 51 -50 32
-17 74 -45 92 -61 l34 -29 -30 2 c-23 2 -29 -1 -26 -12 3 -8 3 -37 2 -65 -2
-27 -3 -64 -4 -82 0 -25 -6 -34 -28 -43 -15 -7 -26 -17 -23 -23 2 -7 -1 -19
-6 -27 -8 -12 -13 -13 -30 -2 -17 10 -20 10 -20 -3 0 -9 9 -15 22 -15 l21 0
-22 -24 c-13 -14 -20 -29 -17 -34 3 -5 -5 -17 -19 -26 -14 -9 -25 -23 -25 -31
0 -8 -5 -15 -11 -15 -5 0 -9 -8 -7 -17 1 -10 -1 -19 -5 -20 -14 -4 -67 -67
-67 -80 0 -6 -12 -18 -27 -25 -27 -13 -28 -17 -28 -83 l0 -70 -33 -11 c-38
-12 -52 -28 -52 -61 0 -16 -4 -21 -15 -17 -15 6 -19 -7 -15 -54 1 -13 -4 -30
-12 -39 -7 -9 -13 -21 -14 -27 -1 -23 -26 -76 -36 -76 -5 0 -6 -5 -3 -11 4 -6
-3 -17 -15 -26 -19 -13 -20 -17 -7 -32 17 -19 15 -76 -2 -76 -16 0 -36 -58
-39 -115 -2 -24 -8 -50 -13 -57 -6 -7 -8 -17 -4 -23 3 -5 -2 -10 -13 -10 -29
0 -37 -17 -56 -115 -9 -49 -19 -102 -22 -118 -3 -15 -9 -25 -14 -22 -11 7 -42
-43 -38 -63 4 -18 -5 -32 -35 -60 -22 -20 -57 -85 -57 -106 0 -21 -21 -31 -31
-15 -5 8 -9 23 -9 33 0 25 -31 96 -42 96 -4 0 -8 -4 -8 -9 0 -5 -6 -11 -14
-13 -11 -2 -8 -24 14 -113 l27 -110 32 0 c35 0 40 6 84 100 13 28 42 84 64
125 22 41 109 208 193 370 84 162 160 311 170 330 10 19 59 118 109 220 50
102 105 210 122 240 284 491 343 632 305 725 -12 29 -15 66 -11 188 3 84 7
172 9 197 19 198 17 410 -5 410 -4 0 -12 -8 -17 -17z m-1002 -2823 c0 -5 -2
-10 -4 -10 -3 0 -8 5 -11 10 -3 6 -1 10 4 10 6 0 11 -4 11 -10z m-2 -49 c3 -8
-1 -12 -9 -9 -7 2 -15 10 -17 17 -3 8 1 12 9 9 7 -2 15 -10 17 -17z"/>
<path d="M3631 6189 c-10 -35 -10 -44 4 -65 12 -19 14 -36 9 -72 -5 -26 -8
-50 -9 -54 0 -3 -3 -10 -7 -14 -5 -4 -8 -17 -8 -29 0 -13 -7 -39 -15 -58 -8
-20 -15 -49 -15 -65 0 -15 -7 -37 -15 -48 -8 -10 -15 -38 -15 -62 0 -56 -18
-181 -30 -209 -5 -13 -16 -23 -25 -23 -9 0 -15 -9 -15 -25 0 -17 6 -25 18 -25
14 0 14 -2 3 -9 -8 -5 -16 -20 -18 -33 -8 -63 -15 -88 -23 -88 -6 0 -10 -7
-10 -15 0 -9 6 -15 14 -13 8 2 15 0 15 -4 3 -34 -2 -48 -19 -53 -11 -4 -18
-11 -15 -16 4 -5 -3 -9 -13 -9 -18 0 -19 3 -9 25 7 14 18 25 25 25 6 0 12 5
12 11 0 6 -7 9 -15 5 -8 -3 -15 0 -15 6 0 7 -4 7 -13 -1 -8 -6 -16 -8 -20 -5
-3 3 -15 3 -27 -1 -20 -6 -20 -8 -4 -19 11 -9 17 -25 16 -47 -3 -80 -6 -87
-34 -93 -16 -3 -29 -14 -33 -28 -4 -13 -15 -31 -23 -41 -18 -20 -17 -73 0 -94
6 -7 7 -21 4 -30 -6 -15 -8 -15 -16 -3 -8 13 -10 12 -10 -2 0 -9 5 -20 10 -23
8 -5 8 -11 1 -19 -6 -7 -7 -16 -3 -20 4 -4 7 -17 8 -29 1 -12 5 -30 9 -40 6
-14 3 -17 -16 -14 -13 2 -25 9 -27 15 -2 7 -8 12 -13 12 -6 0 -7 -4 -4 -10 4
-6 -8 -10 -30 -10 -56 0 -75 -24 -65 -85 9 -59 -2 -89 -31 -80 -16 5 -19 1
-19 -23 0 -16 -3 -42 -6 -58 -4 -24 -1 -31 18 -39 14 -6 22 -17 20 -28 -2 -13
2 -17 15 -15 12 2 19 -4 21 -19 2 -13 12 -29 23 -36 10 -8 16 -16 13 -20 -8
-8 208 -74 266 -82 41 -5 48 -3 68 20 12 14 22 31 22 39 0 19 26 67 32 60 5
-4 30 55 44 104 7 24 24 12 24 -18 0 -21 -5 -30 -16 -30 -10 0 -14 -6 -11 -14
7 -17 -20 -76 -33 -76 -5 0 -7 -7 -4 -15 4 -8 16 -15 28 -15 12 0 27 -9 34
-20 7 -11 18 -17 27 -14 8 3 13 9 10 13 -2 4 9 6 24 3 23 -3 30 1 36 20 l8 23
4 -22 c5 -26 13 -28 35 -10 29 23 33 71 27 287 -7 231 -60 859 -85 1000 -11
66 -4 363 10 424 12 52 12 60 -3 75 -9 10 -31 38 -48 64 -18 26 -39 47 -46 47
-8 0 -19 -18 -26 -41z m-491 -1689 c0 -5 -4 -10 -10 -10 -5 0 -10 5 -10 10 0
6 5 10 10 10 6 0 10 -4 10 -10z"/>
<path d="M4796 6139 c-16 -28 -26 -52 -23 -55 2 -2 16 19 31 47 35 67 28 74
-8 8z"/>
<path d="M7547 6134 c-4 -4 -7 -17 -7 -29 0 -13 -7 -38 -15 -57 -8 -20 -16
-51 -18 -70 -2 -18 -6 -38 -9 -43 -10 -17 -71 -129 -79 -145 -7 -14 -21 -49
-23 -60 -1 -3 -7 -15 -14 -27 -7 -13 -10 -23 -6 -23 3 0 2 -6 -4 -12 -5 -7
-12 -38 -14 -68 -3 -30 -3 -45 -1 -32 3 15 10 22 21 20 9 -1 23 1 30 5 8 6 12
1 12 -13 0 -31 -80 -180 -97 -180 -8 0 -12 -4 -9 -8 3 -5 -1 -32 -8 -60 -8
-28 -11 -53 -8 -56 3 -3 1 -6 -4 -6 -5 0 -10 -10 -11 -21 -2 -20 -12 -46 -49
-123 -8 -16 -14 -33 -14 -37 0 -4 -13 -36 -29 -71 -29 -64 -50 -116 -80 -198
-17 -47 -27 -67 -81 -165 -32 -59 -140 -237 -209 -347 -65 -102 -156 -249
-167 -268 -15 -28 -46 -61 -52 -56 -2 3 26 59 62 125 36 66 66 122 66 125 0 8
129 227 145 246 11 14 65 117 95 182 13 28 7 49 -13 43 -7 -2 -24 -6 -39 -9
-16 -4 -28 -11 -28 -17 0 -10 -9 -23 -41 -58 -8 -9 -13 -23 -11 -29 2 -7 -3
-15 -12 -18 -9 -3 -16 -12 -16 -20 0 -8 -7 -14 -15 -14 -8 0 -15 -9 -15 -20 0
-11 -3 -20 -8 -20 -4 0 -22 -28 -40 -62 -18 -35 -47 -88 -63 -118 -34 -62 -99
-209 -99 -225 0 -5 -7 -23 -16 -40 -9 -16 -17 -37 -18 -45 -1 -8 -6 -24 -10
-35 -26 -65 -66 -172 -68 -184 -2 -7 3 -16 11 -19 8 -2 11 0 7 6 -3 6 4 21 16
34 40 42 68 78 68 88 0 5 10 19 23 32 12 13 38 43 58 68 20 25 51 61 69 80 18
19 68 85 111 146 92 130 114 152 122 130 4 -9 1 -15 -5 -13 -7 1 -14 -6 -16
-17 -2 -11 0 -16 7 -12 6 4 4 -7 -4 -26 -9 -21 -20 -33 -32 -32 -13 0 -19 -7
-19 -20 1 -12 -5 -20 -11 -18 -7 1 -13 -5 -13 -14 0 -11 5 -14 17 -10 15 6 15
4 -2 -14 -21 -24 -26 -25 -19 -6 3 8 1 17 -5 21 -6 3 -11 -2 -11 -12 0 -10 -9
-29 -19 -42 -10 -14 -16 -31 -13 -40 4 -9 1 -12 -7 -7 -14 9 -61 -30 -61 -50
0 -7 -5 -14 -12 -16 -6 -2 -12 -11 -14 -19 -1 -12 5 -15 24 -11 18 4 23 2 17
-8 -6 -9 -3 -10 13 -1 12 6 24 16 27 21 3 6 15 10 27 10 13 0 18 5 15 14 -4
10 -1 13 8 9 15 -5 84 31 143 74 18 14 36 23 39 20 3 -3 -13 -18 -35 -34 -22
-15 -48 -40 -58 -55 -11 -16 -25 -28 -31 -28 -7 0 -13 -7 -13 -15 0 -9 -9 -15
-22 -15 -22 -1 -22 -1 -5 -15 18 -13 17 -14 -12 -30 -17 -8 -31 -22 -31 -29 0
-8 -7 -16 -15 -20 -8 -3 -15 -12 -15 -20 0 -7 -7 -17 -16 -20 -14 -5 -14 -8 0
-21 20 -21 66 -19 128 5 28 11 54 17 56 15 3 -2 -3 -7 -12 -11 -9 -3 -16 -13
-16 -20 0 -8 -10 -19 -22 -24 -13 -5 -43 -23 -68 -39 -25 -17 -49 -31 -55 -31
-11 -1 -69 -49 -64 -54 9 -7 247 -114 269 -121 14 -4 43 -18 65 -31 22 -12 58
-26 80 -30 l39 -7 -17 26 c-22 34 -21 41 5 34 12 -4 28 -1 35 5 10 8 13 7 13
-2 0 -8 3 -10 8 -6 4 4 7 13 7 19 0 7 12 13 28 15 15 2 25 7 22 13 -3 5 3 19
14 31 12 12 21 27 21 33 0 6 20 33 44 60 25 27 51 60 58 74 7 14 15 28 18 31
35 35 113 187 103 203 -3 5 -17 -10 -32 -34 -25 -43 -55 -78 -123 -146 -27
-28 -34 -31 -41 -17 -6 11 -1 27 17 52 49 72 276 513 276 537 0 8 15 32 33 52
66 75 80 102 74 140 -8 44 -51 189 -78 258 -10 28 -19 62 -19 77 0 14 -11 82
-24 150 -14 68 -30 161 -36 208 -6 47 -20 121 -31 164 -22 88 -20 204 7 388
12 84 28 245 26 273 -1 12 -16 18 -25 9z m-527 -1710 c0 -8 -5 -12 -10 -9 -6
4 -8 11 -5 16 9 14 15 11 15 -7z m-20 -24 c0 -5 -5 -10 -11 -10 -5 0 -7 5 -4
10 3 6 8 10 11 10 2 0 4 -4 4 -10z m160 -449 c-5 -11 -18 -22 -27 -25 -10 -3
-31 -28 -46 -56 -34 -60 -112 -144 -127 -135 -5 3 -10 1 -10 -6 0 -7 -12 -26
-27 -42 -27 -28 -27 -29 -9 -43 11 -7 17 -16 15 -18 -6 -6 -146 37 -156 48
-15 15 118 93 137 81 5 -3 11 -1 15 5 3 5 1 10 -4 10 -6 0 -11 5 -11 11 0 6 7
9 15 5 8 -3 15 -1 15 4 0 6 7 10 15 10 8 0 25 14 37 31 13 17 34 37 48 44 14
7 48 32 75 54 57 47 60 48 45 22z"/>
<path d="M6440 6089 c0 -5 7 -10 15 -10 8 -1 20 -2 25 -3 6 -1 11 3 13 8 1 5
-10 10 -25 12 -16 1 -28 -2 -28 -7z"/>
<path d="M7040 5649 c-7 -11 -9 -23 -6 -27 3 -3 6 1 6 9 0 11 2 11 10 -1 8
-13 11 -13 26 2 15 15 15 17 -4 27 -18 9 -23 8 -32 -10z"/>
<path d="M7320 5536 c0 -9 5 -16 10 -16 6 0 10 4 10 9 0 6 -4 13 -10 16 -5 3
-10 -1 -10 -9z"/>
<path d="M6830 5280 c0 -5 4 -10 9 -10 6 0 13 5 16 10 3 6 -1 10 -9 10 -9 0
-16 -4 -16 -10z"/>
<path d="M5082 5233 c-10 -34 -10 -36 3 -19 13 17 21 56 12 56 -2 0 -9 -17
-15 -37z"/>
<path d="M4343 5115 c0 -33 2 -45 4 -27 2 18 2 45 0 60 -2 15 -4 0 -4 -33z"/>
<path d="M5052 5090 c0 -14 2 -19 5 -12 2 6 2 18 0 25 -3 6 -5 1 -5 -13z"/>
<path d="M5043 4830 c4 -113 11 -234 17 -270 7 -42 9 -110 4 -190 -12 -212
-11 -265 6 -265 10 0 14 7 11 20 -2 11 -5 58 -6 105 -1 72 3 102 32 193 18 60
30 113 27 119 -4 6 -8 36 -10 67 -6 107 -20 162 -46 181 -4 3 -12 57 -18 120
-6 63 -13 117 -17 120 -3 3 -3 -87 0 -200z"/>
<path d="M4328 4894 c-11 -10 -10 -62 1 -68 5 -3 9 -26 9 -51 1 -26 9 -74 18
-108 15 -60 19 -70 43 -130 6 -15 11 -36 11 -47 0 -10 3 -20 8 -22 4 -1 22
-43 41 -93 43 -116 83 -189 105 -193 28 -6 12 113 -45 331 -5 20 -14 37 -20
37 -19 0 -37 27 -44 64 -4 20 -11 39 -16 42 -5 3 -7 9 -4 14 3 4 -2 10 -10 14
-8 3 -15 10 -15 16 0 6 -8 23 -17 37 -22 33 -42 86 -51 131 -4 19 -10 30 -14
26z"/>
<path d="M3926 4643 c6 -25 14 -46 45 -118 22 -52 81 -174 99 -205 11 -19 20
-43 20 -52 0 -11 8 -18 20 -18 26 0 25 6 -6 60 -53 91 -136 264 -150 311 -15
51 -39 70 -28 22z"/>
<path d="M4100 4493 c0 -7 5 -15 10 -18 7 -4 7 -12 0 -25 -13 -23 -13 -33 -1
-25 5 3 12 1 16 -5 3 -5 -1 -10 -10 -10 -12 0 -9 -12 17 -60 18 -34 39 -72 46
-85 7 -14 20 -25 29 -25 38 0 -22 173 -83 239 -13 14 -24 20 -24 14z"/>
<path d="M4860 4370 c-13 -8 -12 -10 3 -10 9 0 17 5 17 10 0 12 -1 12 -20 0z"/>
<path d="M4935 4350 c10 -11 20 -20 23 -20 3 0 -3 9 -13 20 -10 11 -20 20 -23
20 -3 0 3 -9 13 -20z"/>
<path d="M4827 4343 c-4 -3 -7 -11 -7 -17 0 -6 5 -5 12 2 6 6 9 14 7 17 -3 3
-9 2 -12 -2z"/>
<path d="M3930 4302 c0 -20 6 -35 16 -39 28 -11 33 11 8 42 l-24 30 0 -33z"/>
<path d="M5564 4278 c3 -13 7 -43 11 -67 13 -96 93 -231 137 -231 20 0 20 1 5
18 -10 10 -17 26 -17 36 0 10 -7 25 -16 33 -10 10 -13 25 -10 39 4 14 2 24 -4
24 -5 0 -10 4 -10 10 0 16 -51 124 -68 143 -21 24 -33 21 -28 -5z"/>
<path d="M6895 4280 c-3 -5 -1 -10 4 -10 6 0 11 5 11 10 0 6 -2 10 -4 10 -3 0
-8 -4 -11 -10z"/>
<path d="M3540 4235 c0 -12 7 -14 26 -9 24 6 25 5 15 -14 -6 -11 -15 -22 -20
-24 -5 -1 -13 -16 -17 -32 l-7 -28 27 17 c15 10 26 25 25 34 -3 20 11 54 25
63 6 4 -8 8 -31 8 -32 0 -43 -4 -43 -15z"/>
<path d="M3516 4195 c-3 -9 0 -15 9 -15 16 0 20 16 6 24 -5 3 -11 -1 -15 -9z"/>
<path d="M4920 4195 c-15 -8 -19 -14 -10 -14 18 -1 46 16 40 23 -3 2 -16 -2
-30 -9z"/>
<path d="M5727 4155 c-8 -54 12 -158 33 -178 10 -10 11 -5 5 23 -4 19 -12 73
-19 120 l-13 85 -6 -50z"/>
<path d="M3502 4099 c-7 -20 -10 -43 -6 -52 4 -12 -2 -16 -28 -19 -18 -2 -33
-9 -33 -16 0 -6 -24 -38 -53 -70 -60 -67 -92 -124 -92 -164 0 -25 -2 -27 -19
-18 -11 5 -22 10 -24 10 -3 0 -4 -61 -4 -136 2 -121 4 -137 21 -149 21 -16 36
-11 36 11 0 9 7 22 15 30 8 9 15 13 15 9 0 -3 10 1 22 9 12 9 31 13 45 10 14
-4 36 2 60 17 48 29 64 49 59 71 -2 10 0 21 5 24 5 3 9 10 9 15 0 6 -5 7 -11
3 -8 -5 -8 -1 0 13 6 11 8 23 5 26 -3 3 -1 13 4 24 13 24 32 134 35 205 1 32
5 58 10 58 4 0 7 9 7 19 0 11 5 23 10 26 6 3 10 19 10 36 0 23 -4 29 -23 29
-12 0 -29 -10 -37 -22 l-14 -23 -6 30 -6 30 -12 -36z"/>
<path d="M7552 4095 c-6 -14 -8 -25 -3 -25 8 0 23 41 17 47 -1 2 -8 -8 -14
-22z"/>
<path d="M5165 4100 c-3 -5 1 -10 9 -10 9 0 16 5 16 10 0 6 -4 10 -9 10 -6 0
-13 -4 -16 -10z"/>
<path d="M5935 3930 c-3 -5 7 -12 22 -16 23 -5 135 -34 238 -61 15 -4 17 -3 9
6 -11 12 -46 23 -131 41 -23 5 -58 16 -78 25 -44 18 -52 18 -60 5z"/>
<path d="M6637 3933 c-4 -3 -7 -12 -7 -20 0 -11 4 -11 20 -1 11 7 20 16 20 20
0 10 -24 10 -33 1z"/>
<path d="M6540 3844 c0 -8 5 -12 10 -9 6 3 10 10 10 16 0 5 -4 9 -10 9 -5 0
-10 -7 -10 -16z"/>
<path d="M6365 3810 c3 -5 11 -10 16 -10 6 0 7 5 4 10 -3 6 -11 10 -16 10 -6
0 -7 -4 -4 -10z"/>
<path d="M8213 3799 c-149 -13 -313 -64 -313 -97 0 -9 10 -27 23 -40 12 -14
15 -22 7 -18 -8 4 7 -12 34 -36 27 -24 67 -60 89 -80 36 -34 45 -38 94 -38 50
0 55 -2 66 -29 l13 -29 23 24 c17 18 25 39 28 77 2 28 9 55 16 59 7 4 12 20
12 35 0 30 21 40 88 42 48 1 97 34 90 60 -3 13 2 20 17 24 12 3 19 10 15 16
-3 7 2 11 14 11 12 0 21 5 21 10 0 13 -63 9 -72 -4 -3 -5 -13 -2 -23 7 -18 19
-81 20 -242 6z m244 -44 c0 -8 -4 -15 -9 -15 -4 0 -8 7 -8 15 0 8 4 15 8 15 5
0 9 -7 9 -15z"/>
<path d="M8562 3789 c5 -14 68 -20 68 -6 0 4 -9 7 -19 7 -11 0 -27 3 -37 7
-12 4 -15 2 -12 -8z"/>
<path d="M8645 3770 c-3 -5 0 -10 7 -10 9 0 9 -3 -2 -10 -13 -8 -12 -10 3 -10
9 0 17 5 17 10 0 7 13 8 34 4 43 -7 73 7 36 17 -38 11 -88 10 -95 -1z"/>
<path d="M6540 3750 c0 -5 5 -10 10 -10 6 0 10 5 10 10 0 6 -4 10 -10 10 -5 0
-10 -4 -10 -10z"/>
<path d="M8530 3750 c-13 -9 -13 -10 0 -10 13 0 13 -1 0 -10 -12 -8 -11 -10 8
-10 15 0 22 6 22 20 0 22 -7 25 -30 10z"/>
<path d="M6660 3732 l-45 -15 35 -15 c24 -10 35 -11 38 -3 2 6 10 18 18 25 29
29 20 31 -46 8z"/>
<path d="M9113 3740 c-26 -10 -29 -17 -10 -17 6 0 33 -3 60 -7 54 -8 59 -3 17
19 -33 17 -36 17 -67 5z"/>
<path d="M3641 3176 c-18 -31 -31 -59 -28 -62 7 -8 69 94 65 108 -2 6 -19 -14
-37 -46z"/>
<path d="M3761 3164 c-29 -45 -37 -64 -27 -64 8 0 67 102 62 107 -3 3 -19 -16
-35 -43z"/>
<path d="M3826 3167 c-14 -24 -26 -51 -26 -59 0 -26 -63 -180 -93 -225 -15
-24 -27 -46 -27 -50 0 -5 -20 -43 -45 -87 -33 -57 -44 -87 -42 -110 2 -17 -2
-85 -9 -151 -7 -66 -13 -147 -14 -180 l-1 -60 -19 24 c-18 21 -20 39 -20 164
0 77 -2 138 -4 136 -2 -2 -6 -55 -10 -118 -3 -63 -8 -116 -10 -119 -2 -2 -13
1 -24 7 -23 12 -67 79 -58 88 3 3 -15 28 -40 56 l-47 49 7 124 c5 72 4 124 -1
124 -22 0 -82 -67 -89 -100 -12 -54 -5 -80 36 -146 21 -34 45 -77 53 -96 9
-22 44 -58 93 -98 127 -102 122 -96 319 -355 63 -84 80 -114 101 -185 14 -47
49 -130 76 -186 31 -63 48 -110 46 -125 -4 -23 -5 -23 -13 6 -4 17 -19 41 -33
55 -24 24 -25 25 -18 3 5 -14 3 -23 -3 -23 -6 0 -11 -9 -11 -21 0 -11 4 -18 9
-15 5 3 11 -3 14 -13 4 -15 1 -18 -12 -14 -13 5 -13 3 3 -15 11 -12 14 -22 8
-22 -6 0 -14 -10 -18 -22 -3 -12 -13 -28 -20 -36 -20 -19 -17 -36 4 -27 47 20
76 -3 85 -68 3 -21 8 -41 10 -44 10 -9 67 28 89 57 12 17 43 44 69 61 68 43
77 56 46 68 -13 5 -27 17 -31 26 -3 9 -10 14 -15 11 -5 -3 -14 22 -20 57 -18
92 -29 122 -56 147 -14 13 -25 29 -25 35 0 28 -54 114 -97 155 -59 55 -102
112 -126 165 -10 22 -29 51 -42 65 -13 14 -32 42 -44 63 -19 34 -21 53 -21
275 -1 275 0 283 10 277 10 -6 26 28 46 100 9 33 25 85 35 115 10 30 23 91 29
135 7 44 18 97 25 117 19 54 1 56 -29 5z"/>
<path d="M4336 3088 c-3 -13 -8 -70 -11 -128 l-4 -105 19 90 c21 97 25 165 11
165 -5 0 -11 -10 -15 -22z"/>
<path d="M3591 3083 c-1 -6 -4 -20 -7 -30 -5 -17 -5 -17 6 0 6 10 9 23 6 30
-3 9 -5 9 -5 0z"/>
<path d="M6721 3029 c-10 -33 -10 -43 -1 -49 7 -4 10 -12 6 -18 -3 -5 5 -13
19 -16 31 -8 33 -26 3 -27 -22 0 -22 -1 2 -12 33 -15 33 -14 26 -26 -4 -7 -13
-7 -24 -2 -54 29 -191 73 -235 76 -29 3 -43 2 -33 -1 27 -8 126 -82 126 -94 0
-6 7 -10 15 -10 8 0 15 -8 15 -17 1 -27 22 -49 50 -50 13 -1 34 -6 45 -12 25
-12 48 -19 56 -17 4 0 16 -7 27 -17 12 -11 26 -16 32 -12 7 4 16 1 21 -6 7
-11 9 -10 9 4 0 9 7 17 16 17 10 0 14 -6 10 -15 -3 -8 -1 -15 4 -15 6 0 10 11
10 25 0 15 5 24 12 23 9 -2 13 16 15 60 2 64 -2 73 -21 46 -10 -14 -14 -13
-29 4 -17 19 -17 19 8 15 18 -4 25 -1 25 10 0 9 -5 19 -10 22 -6 3 -9 26 -8
51 2 52 -16 80 -26 40 -7 -29 -21 -34 -29 -12 -3 8 1 17 9 20 18 7 9 26 -12
26 -8 0 -14 -9 -14 -19 0 -14 -5 -18 -19 -14 -10 3 -22 0 -25 -6 -13 -20 -23
-11 -18 14 2 15 0 25 -7 25 -6 0 -11 -4 -11 -10 0 -5 -7 -7 -16 -3 -12 5 -13
7 -2 14 9 6 10 11 2 19 -8 8 -14 -1 -23 -31z m139 -141 c0 -9 -7 -10 -37 -2
-13 4 -23 12 -23 19 0 11 6 11 30 2 17 -6 30 -15 30 -19z m-5 -148 c-3 -5 -11
-10 -16 -10 -6 0 -7 5 -4 10 3 6 11 10 16 10 6 0 7 -4 4 -10z"/>
<path d="M4733 2947 c-47 -156 -92 -427 -118 -712 -14 -154 -32 -347 -40 -430
-8 -82 -15 -163 -15 -178 0 -47 24 -26 33 29 4 27 15 85 24 129 9 44 17 132
19 195 5 157 11 210 30 256 14 31 17 78 19 229 2 125 8 223 19 285 16 88 46
212 61 253 4 9 3 17 -1 17 -5 0 -19 -33 -31 -73z"/>
<path d="M6940 2911 c0 -5 5 -13 10 -16 6 -3 10 -2 10 4 0 5 -4 13 -10 16 -5
3 -10 2 -10 -4z"/>
<path d="M5609 2877 c5 -5 21 -7 37 -5 27 3 26 4 -8 9 -22 3 -34 1 -29 -4z"/>
<path d="M5833 2853 c9 -2 23 -2 30 0 6 3 -1 5 -18 5 -16 0 -22 -2 -12 -5z"/>
<path d="M5936 2842 c-2 -2 -1 -16 3 -30 5 -15 6 -34 4 -42 -3 -8 5 -1 16 15
12 17 21 28 21 25 0 -3 -18 -59 -40 -125 -23 -66 -52 -160 -65 -210 -29 -109
-131 -423 -145 -447 -5 -10 -10 -24 -10 -32 0 -8 -6 -19 -14 -23 -7 -4 -15
-20 -18 -35 -3 -15 -1 -25 3 -22 15 9 10 -13 -6 -26 -26 -22 -16 -27 33 -18
26 4 79 12 117 18 39 5 90 14 115 19 112 25 529 147 715 209 33 11 94 31 135
43 41 12 92 30 112 41 21 10 44 18 53 18 8 0 45 13 80 29 64 29 65 30 54 58
-5 15 -13 30 -17 33 -23 17 -93 188 -117 285 -4 16 -131 62 -190 70 -27 3 -66
10 -85 15 -19 5 -66 14 -105 20 -102 16 -148 25 -262 51 -57 12 -105 20 -109
17 -3 -3 -5 -42 -5 -86 0 -63 6 -93 26 -141 14 -33 25 -66 25 -73 0 -6 30 -73
68 -147 66 -133 88 -209 51 -175 -20 18 -49 8 -49 -17 0 -23 -35 -26 -47 -4
-7 12 -16 13 -41 6 -25 -8 -32 -7 -32 5 0 8 -4 14 -9 14 -5 0 -17 13 -28 29
-26 40 -60 27 -68 -26 -3 -21 -10 -67 -17 -103 -6 -36 -11 -76 -11 -90 0 -23
-4 -25 -34 -22 -32 4 -42 15 -24 26 5 4 12 0 15 -6 3 -7 3 0 -1 16 -4 18 -1
31 8 37 11 7 11 9 -3 9 -15 0 -17 24 -19 263 -4 430 -4 440 1 482 l5 40 -43 6
c-23 3 -44 4 -46 1z m342 -91 c9 -15 20 -28 23 -27 3 1 13 -7 23 -17 13 -12
22 -49 31 -125 8 -59 17 -123 21 -142 11 -54 -1 -33 -35 62 -17 48 -37 98 -45
110 -11 19 -56 148 -56 164 0 14 23 -1 38 -25z m173 -131 c29 -121 38 -191 20
-160 -5 8 -12 34 -16 58 -4 23 -10 42 -15 42 -4 0 -11 24 -15 53 -3 28 -11 67
-16 84 -9 30 -4 61 8 49 3 -2 18 -59 34 -126z m-461 40 c0 -16 -4 -32 -10 -35
-5 -3 -10 -16 -10 -28 0 -12 -7 -40 -15 -62 -22 -62 -19 -120 11 -172 33 -60
37 -151 7 -192 -19 -24 -64 -171 -66 -213 -1 -20 -17 -25 -18 -5 0 6 -4 2 -9
-10 -7 -16 -14 -21 -26 -16 -12 4 -15 3 -10 -5 4 -7 2 -12 -3 -12 -6 0 -11 8
-11 18 0 10 -4 22 -9 28 -10 10 0 72 27 164 9 30 15 77 13 104 -1 28 6 78 17
115 11 37 32 118 47 181 40 165 45 181 56 175 5 -4 9 -19 9 -35z m619 -242
c25 -74 25 -79 6 -72 -13 5 -30 45 -39 90 -2 10 -12 39 -21 64 -9 25 -19 56
-21 70 -7 36 50 -79 75 -152z m31 -94 c0 -8 -19 -13 -24 -6 -3 5 1 9 9 9 8 0
15 -2 15 -3z m-283 -176 c-3 -8 -6 -5 -6 6 -1 11 2 17 5 13 3 -3 4 -12 1 -19z"/>
<path d="M6680 2750 c0 -5 7 -10 16 -10 8 0 12 5 9 10 -3 6 -10 10 -16 10 -5
0 -9 -4 -9 -10z"/>
<path d="M6858 2693 c6 -2 18 -2 25 0 6 3 1 5 -13 5 -14 0 -19 -2 -12 -5z"/>
<path d="M3527 2637 c-4 -10 -7 -28 -7 -40 1 -20 2 -20 11 -4 6 10 9 28 7 40
-3 20 -4 20 -11 4z"/>
<path d="M6993 2608 c15 -61 60 -178 68 -178 15 0 10 22 -16 78 -14 30 -25 62
-25 72 0 26 -11 50 -22 50 -6 0 -8 -10 -5 -22z"/>
<path d="M5551 2234 c0 -11 3 -14 6 -6 3 7 2 16 -1 19 -3 4 -6 -2 -5 -13z"/>
<path d="M5507 2013 c-2 -5 -9 -35 -16 -68 -7 -33 -16 -77 -21 -98 -7 -33 -6
-38 8 -35 14 3 18 20 23 83 3 44 9 90 13 103 7 21 2 31 -7 15z"/>
<path d="M4992 1921 c-7 -19 -10 -36 -8 -38 8 -8 27 38 24 55 -3 11 -8 5 -16
-17z"/>
<path d="M3456 1931 c-13 -20 -3 -96 18 -139 20 -42 20 -45 3 -74 -12 -20 -17
-52 -17 -101 0 -39 -7 -100 -16 -136 -14 -56 -15 -77 -5 -142 6 -42 9 -95 5
-117 -6 -36 -1 -51 40 -126 26 -47 52 -89 59 -93 20 -13 130 -55 160 -60 27
-5 48 -23 27 -23 -6 0 -8 -5 -4 -11 5 -8 1 -8 -14 0 -26 14 -32 14 -32 0 0 -5
5 -7 11 -3 7 4 10 1 7 -7 -3 -8 -9 -15 -14 -15 -29 -5 -54 -18 -45 -23 6 -4
13 -27 15 -50 4 -39 25 -84 23 -50 -1 39 6 57 37 89 55 58 177 164 204 179
l26 14 -24 9 c-38 13 -94 79 -84 96 7 10 -2 26 -30 55 -46 49 -96 150 -96 192
0 48 -45 195 -77 255 -54 99 -96 175 -100 180 -3 3 -11 -3 -18 -13 -12 -16
-14 -15 -24 14 -6 18 -11 44 -11 58 0 32 -15 58 -24 42z m252 -1061 c-7 -11
-17 -20 -22 -20 -5 0 -1 9 9 20 10 11 20 20 22 20 2 0 -2 -9 -9 -20z"/>
<path d="M4482 1880 c-13 -17 -17 -27 -8 -24 11 4 41 54 33 54 -2 0 -13 -13
-25 -30z"/>
<path d="M4960 1800 c0 -6 -9 -20 -20 -32 -11 -12 -20 -28 -20 -35 0 -7 -4
-13 -10 -13 -5 0 -10 -4 -10 -10 0 -15 36 -12 50 5 17 20 30 84 19 91 -5 3 -9
0 -9 -6z"/>
<path d="M6806 1315 c-82 -19 -151 -36 -154 -39 -4 -5 97 -533 153 -796 24
-112 67 -323 87 -427 l9 -53 192 0 c135 1 187 4 175 11 -10 5 -18 21 -18 35 0
13 -7 27 -15 30 -8 4 -12 11 -9 16 4 6 10 5 15 -3 6 -11 11 -11 20 -2 10 10 6
15 -15 23 -15 5 -31 10 -35 10 -15 0 -11 100 4 123 18 28 13 172 -9 241 -9 28
-14 57 -11 67 3 10 -1 19 -10 23 -9 3 -15 18 -15 41 0 19 -4 35 -8 35 -11 0
-32 61 -32 92 0 14 -9 33 -20 43 -11 10 -20 26 -20 36 0 10 -7 25 -16 34 -11
10 -17 36 -18 78 -1 37 -9 72 -18 87 -9 14 -20 50 -24 80 -4 30 -10 57 -14 60
-13 9 -27 169 -16 180 16 16 -16 11 -178 -25z"/>
<path d="M6455 1228 c-77 -16 -178 -35 -225 -44 -47 -8 -110 -22 -141 -30
l-56 -16 -2 -55 c-2 -60 15 -110 41 -119 9 -3 19 -18 23 -34 3 -15 13 -31 21
-34 9 -3 14 -20 14 -48 0 -61 11 -119 21 -112 5 3 9 0 9 -7 0 -8 5 -7 17 2 13
11 17 11 20 2 8 -24 24 -13 21 15 -2 17 1 26 10 24 6 -1 12 5 12 13 0 8 9 20
20 27 22 14 28 58 8 58 -10 0 -9 3 1 9 7 5 14 24 16 42 2 19 4 34 5 34 9 0 6
73 -3 84 -10 12 -9 14 5 8 25 -9 78 12 72 28 -3 7 -1 16 5 20 10 5 15 -7 12
-27 -2 -12 17 -9 21 3 2 6 25 13 52 16 37 5 50 11 54 25 4 15 10 18 30 13 19
-5 23 -3 19 9 -7 17 28 42 50 38 8 -2 10 3 7 13 -4 10 0 15 11 15 12 0 15 5
11 16 -3 9 -6 22 -6 30 0 20 -20 17 -21 -3 0 -16 -1 -16 -7 -2 -6 14 -22 13
-147 -13z"/>
<path d="M5930 1118 c-14 -6 -50 -22 -82 -36 -55 -23 -56 -25 -61 -70 -12
-108 -77 -516 -128 -801 -39 -221 -40 -211 19 -211 l48 0 12 123 c14 132 63
456 88 576 8 40 21 80 30 88 8 9 12 23 9 34 -6 19 22 79 37 79 4 0 8 12 8 28
0 27 18 60 52 94 10 10 15 24 12 32 -7 18 13 57 28 53 6 -1 13 4 15 11 6 15
-51 15 -87 0z"/>
<path d="M5650 996 c-96 -49 -115 -64 -217 -169 -62 -64 -150 -144 -195 -178
-46 -34 -87 -67 -93 -73 -5 -7 -27 -22 -48 -35 -51 -31 -69 -51 -63 -67 3 -8
1 -14 -3 -14 -5 0 -11 5 -13 10 -3 10 -175 -97 -196 -122 -8 -11 -6 -13 12
-13 12 1 28 5 36 10 10 6 12 4 7 -7 -4 -12 -1 -14 14 -11 20 6 27 23 8 23 -5
0 -7 5 -4 11 5 7 13 5 25 -6 16 -14 18 -14 24 0 3 9 -1 18 -9 21 -8 4 -15 12
-15 20 0 19 28 6 35 -16 4 -11 12 -17 20 -14 11 4 7 11 -12 28 -20 17 -23 25
-13 31 7 5 11 4 8 -1 -3 -5 -1 -13 6 -19 13 -12 48 -16 41 -5 -3 4 4 10 15 13
11 3 20 1 20 -4 0 -5 5 -9 10 -9 6 0 10 7 10 15 0 10 -10 15 -29 15 -17 0 -33
4 -36 10 -7 11 4 13 48 10 15 -1 27 3 27 9 0 6 -7 11 -16 11 -17 0 -15 21 4
28 6 2 14 -8 18 -22 7 -29 14 -32 32 -14 9 9 15 9 24 0 9 -9 9 -12 0 -12 -7 0
-12 -14 -12 -31 0 -18 -7 -37 -15 -43 -13 -10 -13 -14 0 -40 8 -15 15 -37 15
-48 0 -10 4 -17 9 -14 5 3 7 -24 6 -59 -1 -36 2 -68 8 -72 6 -4 4 -11 -6 -17
-15 -12 -21 -45 -19 -98 2 -27 4 -28 62 -28 33 0 60 3 60 7 0 19 62 469 76
552 17 103 36 161 54 161 6 0 8 5 4 13 -5 7 0 6 11 -3 16 -13 16 -15 2 -18
-20 -4 -23 -22 -4 -22 13 0 40 -97 31 -112 -4 -5 -8 -48 -11 -95 -2 -47 -8
-104 -13 -127 -28 -125 -36 -175 -34 -211 1 -22 -1 -44 -5 -50 -4 -5 -9 -29
-10 -52 l-2 -43 39 0 40 0 5 52 c2 29 21 150 42 268 29 170 44 228 67 275 34
69 47 87 58 80 8 -5 30 38 30 59 0 8 10 16 23 20 16 4 19 8 9 14 -9 6 -10 16
-4 32 6 17 11 20 17 11 6 -11 9 -10 16 0 7 11 9 11 9 -2 0 -16 26 -19 48 -5
14 8 17 56 3 56 -5 0 -11 -10 -13 -22 -4 -29 -20 -33 -36 -7 -12 18 -10 21 17
32 17 6 31 15 31 19 0 4 -7 5 -16 1 -14 -5 -15 -3 -5 14 6 11 17 23 26 27 8 3
15 14 15 25 0 11 4 22 8 25 14 8 13 76 -1 75 -7 0 -59 -24 -117 -53z m-540
-471 c-7 -8 -18 -15 -24 -15 -6 0 -2 7 8 15 25 19 32 19 16 0z m5 -25 c-3 -5
-12 -10 -18 -10 -7 0 -6 4 3 10 19 12 23 12 15 0z m-131 -66 c20 -8 21 -24 2
-24 -8 0 -16 7 -20 15 -6 17 -4 18 18 9z"/>
<path d="M4116 800 c-39 -44 -73 -80 -77 -80 -4 0 -10 -7 -13 -15 -5 -14 -3
-14 12 -3 57 40 162 150 162 168 0 22 -18 7 -84 -70z"/>
<path d="M3680 686 c0 -22 3 -27 11 -19 8 8 8 16 0 30 -9 16 -10 14 -11 -11z"/>
<path d="M3262 670 c1 -16 5 -30 9 -30 12 0 49 -102 60 -166 6 -35 14 -64 18
-64 15 0 40 82 48 163 l9 87 -60 20 c-80 27 -87 26 -84 -10z"/>
<path d="M3477 663 c-2 -5 -4 -42 -5 -83 0 -41 -8 -172 -16 -290 -9 -118 -16
-232 -16 -252 l0 -38 153 0 153 0 -4 259 c-3 169 -1 271 6 290 10 29 9 31 -13
31 -13 0 -36 5 -51 10 -22 9 -29 8 -36 -5 -16 -27 -48 -16 -102 35 -54 51 -62
56 -69 43z"/>
<path d="M4285 613 c-38 -25 -64 -48 -57 -51 6 -2 31 10 54 27 24 16 62 36 86
43 48 15 55 28 14 28 -16 0 -56 -19 -97 -47z"/>
<path d="M3845 606 l-30 -13 28 -5 c16 -3 27 -1 27 6 0 6 4 5 9 -2 7 -11 10
-10 15 3 3 9 6 19 6 21 0 8 -25 3 -55 -10z"/>
<path d="M4575 498 c-48 -18 -125 -69 -125 -83 0 -25 25 -22 61 6 20 16 58 38
85 49 37 16 45 23 34 30 -18 11 -17 11 -55 -2z"/>
<path d="M3194 363 c-3 -10 -11 -31 -16 -46 -15 -40 3 -56 31 -26 25 28 26 35
4 48 -14 8 -15 12 -4 25 9 11 10 16 2 16 -6 0 -14 -8 -17 -17z"/>
<path d="M4791 313 c-1 -17 5 -23 18 -23 11 0 23 5 27 11 4 7 0 9 -14 5 -15
-5 -22 -2 -25 11 -4 14 -5 13 -6 -4z"/>
<path d="M4510 238 c0 -1 -2 -56 -4 -120 -4 -97 -2 -118 10 -118 11 0 14 21
16 100 1 55 2 108 2 117 1 9 -5 18 -11 21 -7 2 -13 2 -13 0z"/>
<path d="M7250 150 c0 -5 5 -10 11 -10 5 0 7 5 4 10 -3 6 -8 10 -11 10 -2 0
-4 -4 -4 -10z"/>
</g>
</svg>
